<svg xmlns="http://www.w3.org/2000/svg" xmlns:xlink="http://www.w3.org/1999/xlink" width="292.792" height="84.076" viewBox="0 0 292.792 84.076">
  <defs>
    <linearGradient id="linear-gradient" x1="2.472" y1="1.035" x2="2.361" y2="1.005" gradientUnits="objectBoundingBox">
      <stop offset="0" stop-color="#00a0ff"/>
      <stop offset="0.007" stop-color="#00a1ff"/>
      <stop offset="0.26" stop-color="#00beff"/>
      <stop offset="0.512" stop-color="#00d2ff"/>
      <stop offset="0.76" stop-color="#00dfff"/>
      <stop offset="1" stop-color="#00e3ff"/>
    </linearGradient>
    <linearGradient id="linear-gradient-2" x1="1.95" y1="1.879" x2="1.69" y2="1.879" gradientUnits="objectBoundingBox">
      <stop offset="0" stop-color="#ffe000"/>
      <stop offset="0.409" stop-color="#ffbd00"/>
      <stop offset="0.775" stop-color="orange"/>
      <stop offset="1" stop-color="#ff9c00"/>
    </linearGradient>
    <linearGradient id="linear-gradient-3" x1="1.926" y1="0.946" x2="1.835" y2="0.793" gradientUnits="objectBoundingBox">
      <stop offset="0" stop-color="#ff3a44"/>
      <stop offset="1" stop-color="#c31162"/>
    </linearGradient>
    <linearGradient id="linear-gradient-4" x1="1.856" y1="2.093" x2="1.897" y2="2.025" gradientUnits="objectBoundingBox">
      <stop offset="0" stop-color="#32a071"/>
      <stop offset="0.068" stop-color="#2da771"/>
      <stop offset="0.476" stop-color="#15cf74"/>
      <stop offset="0.801" stop-color="#06e775"/>
      <stop offset="1" stop-color="#00f076"/>
    </linearGradient>
  </defs>
  <g id="Google_Play_Store_badge_EN" transform="translate(2 2)">
    <path id="Path_97" data-name="Path 97" d="M278.737,80.076H10.055A10.06,10.06,0,0,1,0,70.067V10.01A10.047,10.047,0,0,1,10.055,0H278.737a10.05,10.05,0,0,1,10.055,10.01V70.067A10.063,10.063,0,0,1,278.737,80.076Z" transform="translate(0)" stroke="#fff" stroke-width="4" fill-rule="evenodd"/>
    <path id="Path_98" data-name="Path 98" d="M261.317,1.6a8.452,8.452,0,0,1,8.452,8.407V70.067a8.436,8.436,0,0,1-8.452,8.407H10.055A8.452,8.452,0,0,1,1.6,70.067V10.01A8.436,8.436,0,0,1,10.055,1.6Zm0-1.6H10.055A10.06,10.06,0,0,0,0,10.01V70.067a10.047,10.047,0,0,0,10.055,10.01H261.317a10.05,10.05,0,0,0,10.055-10.01V10.01A10.063,10.063,0,0,0,261.317,0Z" transform="translate(0)" fill="none" fill-rule="evenodd"/>
    <path id="Path_99" data-name="Path 99" d="M1714.672,284.245a6.093,6.093,0,0,1-4.548-1.882,6.41,6.41,0,0,1-1.837-4.593,6.267,6.267,0,0,1,1.837-4.588,6.074,6.074,0,0,1,4.543-1.882,6.156,6.156,0,0,1,4.548,1.882,6.647,6.647,0,0,1,0,9.176A6.042,6.042,0,0,1,1714.672,284.245Zm-53.922,0a6.317,6.317,0,0,1-4.568-1.857,6.47,6.47,0,0,1,4.568-11.083,6.367,6.367,0,0,1,2.551.529,5.161,5.161,0,0,1,1.942,1.388l.12.145-1.353,1.328-.14-.165a3.846,3.846,0,0,0-3.14-1.353,4.341,4.341,0,0,0-3.13,1.278,4.853,4.853,0,0,0,0,6.65,4.577,4.577,0,0,0,6.345,0,3.457,3.457,0,0,0,.918-2.082h-4.338v-1.867h6.2l.025.17a6.852,6.852,0,0,1,.09.939,5.621,5.621,0,0,1-1.548,4.144A6.04,6.04,0,0,1,1660.75,284.245Zm71.695-.265h-1.912l-5.856-9.371.05,1.687v7.678h-1.912V271.57H1725l.06.095,5.506,8.826-.05-1.682V271.57h1.932Zm-32.14,0h-1.937V273.437h-3.36V271.57h8.652v1.867h-3.36V283.98Zm-6.875,0H1691.5V271.57h1.932Zm-10.858,0h-1.932V273.437h-3.36V271.57h8.651v1.867h-3.36Zm-6.515-.02h-7.409V271.57h7.409v1.867h-5.472v3.4h4.937v1.847h-4.937v3.4h5.472Zm35.485-2.881a4.275,4.275,0,0,0,3.13,1.3,4.166,4.166,0,0,0,3.13-1.3,4.919,4.919,0,0,0,.005-6.61,4.283,4.283,0,0,0-3.13-1.3,4.148,4.148,0,0,0-3.125,1.3,4.926,4.926,0,0,0-.01,6.61Z" transform="translate(-1571.712 -257.756)" fill="#fff"/>
    <path id="Path_100" data-name="Path 100" d="M1700.886,692.455a8.517,8.517,0,1,0,8.542,8.517A8.384,8.384,0,0,0,1700.886,692.455Zm0,13.659a5.175,5.175,0,1,1,4.8-5.162A4.928,4.928,0,0,1,1700.886,706.114Zm-18.636-13.659a8.517,8.517,0,1,0,8.542,8.517A8.384,8.384,0,0,0,1682.25,692.455Zm0,13.659a5.175,5.175,0,1,1,4.8-5.162A4.929,4.929,0,0,1,1682.25,706.114Zm-22.176-11.058v3.6h8.652a7.6,7.6,0,0,1-1.957,4.538,8.828,8.828,0,0,1-6.675,2.646,9.611,9.611,0,0,1,0-19.22,9.235,9.235,0,0,1,6.515,2.581l2.556-2.556a12.569,12.569,0,0,0-9.051-3.649,13.216,13.216,0,1,0,0,26.429,12.1,12.1,0,0,0,9.231-3.714,11.961,11.961,0,0,0,3.135-8.452,11.148,11.148,0,0,0-.2-2.247h-12.211S1660.074,695.056,1660.074,695.056Zm90.705,2.806c-.714-1.912-2.871-5.427-7.294-5.427-4.383,0-8.028,3.45-8.028,8.517a8.324,8.324,0,0,0,8.452,8.517A8.453,8.453,0,0,0,1751,705.69l-2.891-1.937a4.843,4.843,0,0,1-4.184,2.356,4.35,4.35,0,0,1-4.139-2.581l11.388-4.718C1751.179,698.815,1750.78,697.862,1750.78,697.862Zm-11.612,2.846a4.674,4.674,0,0,1,4.448-4.962,3.283,3.283,0,0,1,3.16,1.8Zm-9.251,8.252h3.739V683.938h-3.739Zm-6.14-14.612h-.135a5.9,5.9,0,0,0-4.493-1.912,8.517,8.517,0,0,0,0,17.019,5.883,5.883,0,0,0,4.493-1.937h.135v1.223c0,3.25-1.737,5-4.538,5a4.721,4.721,0,0,1-4.293-3.025l-3.25,1.358a8.129,8.129,0,0,0,7.538,5.027c4.383,0,8.1-2.581,8.1-8.876V692.945H1723.8v1.4Zm-4.293,11.767a5.178,5.178,0,0,1,0-10.319c2.556,0,4.538,2.2,4.538,5.182C1724.046,703.958,1722.044,706.114,1719.483,706.114Zm48.8-22.176h-8.941V708.96h3.739v-9.475h5.207c4.139,0,8.207-3,8.207-7.763S1772.446,683.938,1768.287,683.938Zm.11,12.051h-5.317V687.4h5.317a4.294,4.294,0,1,1,0,8.587Zm23.089-3.58c-2.716,0-5.516,1.2-6.675,3.824l3.315,1.378a3.555,3.555,0,0,1,3.4-1.847c1.937,0,3.894,1.158,3.939,3.225v.265a8.376,8.376,0,0,0-3.894-.959c-3.58,0-7.209,1.957-7.209,5.626,0,3.36,2.936,5.516,6.206,5.516a5.264,5.264,0,0,0,4.758-2.446h.135v1.937h3.6v-9.585C1799.07,694.882,1795.755,692.41,1791.487,692.41Zm-.469,13.7c-1.223,0-2.935-.6-2.935-2.137,0-1.937,2.137-2.671,3.959-2.671a6.489,6.489,0,0,1,3.4.844A4.5,4.5,0,0,1,1791.017,706.114Zm21.2-13.17-4.293,10.853h-.135l-4.448-10.853h-4.024l6.675,15.172-3.8,8.432h3.894l10.269-23.6Zm-33.658,16.015h3.739V683.938h-3.739Z" transform="translate(-1564.491 -648.903)" fill="#fff" fill-rule="evenodd"/>
    <path id="Path_101" data-name="Path 101" d="M401.014,299.535a4.055,4.055,0,0,0-.914,2.826v44.267a3.86,3.86,0,0,0,.934,2.8l.155.135,24.8-24.8v-.554L401.168,299.4Z" transform="translate(-380.126 -284.453)" fill-rule="evenodd" fill="url(#linear-gradient)"/>
    <path id="Path_102" data-name="Path 102" d="M926.572,647.623l-8.272-8.272v-.579l8.272-8.272.18.11,9.785,5.561c2.8,1.578,2.8,4.184,0,5.781l-9.785,5.561Z" transform="translate(-872.455 -599.023)" fill-rule="evenodd" fill="url(#linear-gradient-2)"/>
    <path id="Path_103" data-name="Path 103" d="M451.809,810.452,443.357,802,418.4,826.956c.914.979,2.446,1.088,4.159.135l29.25-16.639" transform="translate(-397.512 -761.962)" fill-rule="evenodd" fill="url(#linear-gradient-3)"/>
    <path id="Path_104" data-name="Path 104" d="M451.809,303.765l-29.25-16.614c-1.712-.979-3.25-.844-4.159.135l24.957,24.932Z" transform="translate(-397.512 -272.178)" fill-rule="evenodd" fill="url(#linear-gradient-4)"/>
    <path id="Path_105" data-name="Path 105" d="M452.009,967.7l-29.05,16.5c-1.622.934-3.07.869-4,.02l-.155.155.155.135c.934.844,2.381.914,4-.02l29.25-16.614Z" transform="translate(-397.892 -919.389)" fill-rule="evenodd" opacity="0.2"/>
    <path id="Path_106" data-name="Path 106" d="M1093.49,804.6l-9.99,5.671.18.18,9.785-5.561a3.506,3.506,0,0,0,2.092-2.89A3.6,3.6,0,0,1,1093.49,804.6Z" transform="translate(-1029.408 -761.962)" fill-rule="evenodd" opacity="0.12"/>
    <path id="Path_107" data-name="Path 107" d="M405.172,287.274l39.035,22.176a3.679,3.679,0,0,1,2.092,2.6,3.506,3.506,0,0,0-2.092-2.891l-39.035-22.176c-2.8-1.6-5.072-.265-5.072,2.935v.29C400.1,287,402.372,285.691,405.172,287.274Z" transform="translate(-380.126 -272.013)" fill="#fff" fill-rule="evenodd" opacity="0.25"/>
  </g>
</svg>
