<svg xmlns="http://www.w3.org/2000/svg" width="293.817" height="85.721" viewBox="0 0 293.817 85.721">
  <g id="Group_131" data-name="Group 131" transform="translate(2.001 2.001)">
    <path id="Path_92" data-name="Path 92" d="M293.378,77.089a8.12,8.12,0,0,1-2.445,5.8,8.413,8.413,0,0,1-5.9,2.4H11.918a8.276,8.276,0,0,1-8.357-8.192V11.763a8.287,8.287,0,0,1,8.357-8.2H285.03a8.274,8.274,0,0,1,8.346,8.2l0,65.326Z" transform="translate(-3.562 -3.561)" stroke="#fff" stroke-width="4.002"/>
    <path id="Path_93" data-name="Path 93" d="M88.284,53.892c-.062-6.893,5.646-10.247,5.907-10.4a12.7,12.7,0,0,0-10-5.407C79.979,37.639,75.9,40.6,73.753,40.6c-2.186,0-5.488-2.475-9.045-2.4A13.319,13.319,0,0,0,53.5,45.033c-4.848,8.391-1.232,20.721,3.412,27.5,2.323,3.324,5.038,7.03,8.592,6.9,3.476-.141,4.775-2.214,8.97-2.214,4.157,0,5.376,2.214,9,2.13,3.731-.058,6.08-3.337,8.322-6.688A27.414,27.414,0,0,0,95.6,64.916a12,12,0,0,1-7.317-11.023ZM81.438,33.62a12.2,12.2,0,0,0,2.794-8.746,12.436,12.436,0,0,0-8.04,4.158,11.612,11.612,0,0,0-2.867,8.423c3.04.227,6.161-1.534,8.113-3.835Z" transform="translate(-25.733 -11.919)" fill="#fff"/>
    <g id="Group_112" data-name="Group 112" transform="translate(93.844 38.155)">
      <path id="Path_95" data-name="Path 95" d="M193.848,100.9h-4.859l-2.661-8.361h-9.251l-2.535,8.361h-4.73l9.167-28.463h5.661Zm-8.322-11.868L183.119,81.6q-.382-1.139-1.436-5.362H181.6q-.424,1.816-1.352,5.362l-2.366,7.432Zm31.851,1.354a11.62,11.62,0,0,1-2.845,8.275,8.344,8.344,0,0,1-6.328,2.7q-4.079,0-5.862-2.911v10.769H197.78v-22.1q0-3.288-.169-6.746h4.011l.255,3.253h.086a8.115,8.115,0,0,1,12.988-.806A11.347,11.347,0,0,1,217.377,90.386Zm-4.647.167a8.46,8.46,0,0,0-1.352-4.943,4.673,4.673,0,0,0-3.971-2.025,4.744,4.744,0,0,0-3.061,1.119,5.188,5.188,0,0,0-1.795,2.937,5.951,5.951,0,0,0-.212,1.388v3.424a5.49,5.49,0,0,0,1.374,3.781,4.56,4.56,0,0,0,3.568,1.542,4.675,4.675,0,0,0,4.011-1.985A8.734,8.734,0,0,0,212.73,90.553Zm28.259-.167a11.62,11.62,0,0,1-2.845,8.275,8.348,8.348,0,0,1-6.33,2.7q-4.079,0-5.862-2.911v10.769H221.39v-22.1q0-3.288-.169-6.746h4.011l.255,3.253h.086a8.118,8.118,0,0,1,12.99-.806,11.359,11.359,0,0,1,2.426,7.563Zm-4.649.167a8.46,8.46,0,0,0-1.354-4.943,4.666,4.666,0,0,0-3.966-2.025,4.764,4.764,0,0,0-3.066,1.119,5.185,5.185,0,0,0-1.793,2.937,6.091,6.091,0,0,0-.214,1.388v3.424a5.509,5.509,0,0,0,1.371,3.781,4.57,4.57,0,0,0,3.573,1.542,4.67,4.67,0,0,0,4.011-1.985A8.734,8.734,0,0,0,236.34,90.553Zm31.049,2.363a7.6,7.6,0,0,1-2.531,5.914q-2.779,2.49-7.755,2.492a13.54,13.54,0,0,1-7.372-1.773l1.055-3.8a12.692,12.692,0,0,0,6.589,1.775,6.218,6.218,0,0,0,4.011-1.161,3.793,3.793,0,0,0,1.44-3.1,3.974,3.974,0,0,0-1.185-2.915,10.988,10.988,0,0,0-3.928-2.194q-7.477-2.788-7.479-8.153a7.2,7.2,0,0,1,2.64-5.743,10.441,10.441,0,0,1,6.992-2.239,13.819,13.819,0,0,1,6.463,1.352l-1.145,3.717a11.3,11.3,0,0,0-5.47-1.309,5.564,5.564,0,0,0-3.774,1.183,3.384,3.384,0,0,0-1.145,2.579,3.485,3.485,0,0,0,1.311,2.787,14.775,14.775,0,0,0,4.138,2.194,14.027,14.027,0,0,1,5.406,3.461,7.211,7.211,0,0,1,1.739,4.936ZM282.508,83.8H277.48v9.965q0,3.8,2.661,3.8a8.014,8.014,0,0,0,2.026-.212l.126,3.463a10.337,10.337,0,0,1-3.547.5,5.468,5.468,0,0,1-4.225-1.649Q273,98.019,273,94.135V83.79h-3V80.368h3V76.61l4.48-1.352v5.11h5.028Zm22.639,6.671a11.257,11.257,0,0,1-2.7,7.77,9.64,9.64,0,0,1-7.518,3.125,9.19,9.19,0,0,1-7.2-2.994,10.915,10.915,0,0,1-2.683-7.559A11.166,11.166,0,0,1,287.805,83a9.59,9.59,0,0,1,7.458-3.041,9.383,9.383,0,0,1,7.263,3A10.773,10.773,0,0,1,305.147,90.469Zm-4.728.1a9.188,9.188,0,0,0-1.222-4.842,4.515,4.515,0,0,0-4.1-2.445,4.58,4.58,0,0,0-4.182,2.445,9.34,9.34,0,0,0-1.224,4.928,9.161,9.161,0,0,0,1.224,4.844,4.678,4.678,0,0,0,8.243-.041A9.225,9.225,0,0,0,300.419,90.574Zm19.56-6.188a7.939,7.939,0,0,0-1.438-.126,4.3,4.3,0,0,0-3.718,1.818,6.846,6.846,0,0,0-1.138,4.053V100.9h-4.561V86.84q.006-3.232-.133-6.461h3.973l.167,3.927h.126a7.041,7.041,0,0,1,2.281-3.253,5.516,5.516,0,0,1,3.3-1.1,7.326,7.326,0,0,1,1.14.083Zm20.4,5.281a10.691,10.691,0,0,1-.167,2.068H326.528a5.952,5.952,0,0,0,1.985,4.65,6.79,6.79,0,0,0,4.476,1.433,15.138,15.138,0,0,0,5.537-.969l.715,3.163a17.122,17.122,0,0,1-6.882,1.268,9.979,9.979,0,0,1-7.5-2.806,10.374,10.374,0,0,1-2.723-7.537,11.754,11.754,0,0,1,2.537-7.725,8.742,8.742,0,0,1,7.178-3.292,7.651,7.651,0,0,1,6.72,3.292,11.075,11.075,0,0,1,1.81,6.455Zm-4.349-1.183a6.172,6.172,0,0,0-.886-3.506,3.983,3.983,0,0,0-3.633-1.9,4.325,4.325,0,0,0-3.631,1.859,6.81,6.81,0,0,0-1.35,3.546l9.5,0Z" transform="translate(-169.812 -72.016)" fill="#fff"/>
    </g>
    <g id="Group_113" data-name="Group 113" transform="translate(96.514 13.674)">
      <path id="Path_96" data-name="Path 96" d="M178.086,41.058a29.132,29.132,0,0,1-3.28-.167V27.13a24.837,24.837,0,0,1,3.862-.291c5.231,0,7.64,2.573,7.64,6.767C186.308,38.445,183.462,41.058,178.086,41.058Zm.766-12.454a9.153,9.153,0,0,0-1.806.145V39.21a11.84,11.84,0,0,0,1.515.062c3.427,0,5.378-1.951,5.378-5.6C183.939,30.411,182.174,28.6,178.852,28.6Zm14.963,12.559c-2.948,0-4.859-2.2-4.859-5.189,0-3.114,1.951-5.334,5.025-5.334,2.905,0,4.859,2.1,4.859,5.17C198.84,38.962,196.827,41.163,193.815,41.163Zm.086-8.885c-1.62,0-2.657,1.514-2.657,3.632,0,2.077,1.059,3.591,2.636,3.591s2.636-1.619,2.636-3.634c0-2.053-1.038-3.589-2.614-3.589Zm21.751-1.431L212.5,40.934H210.44l-1.307-4.38a33.2,33.2,0,0,1-.811-3.257h-.043a21.834,21.834,0,0,1-.809,3.257l-1.391,4.38H204l-2.969-10.087h2.3l1.142,4.8q.4,1.713.685,3.238h.043c.165-.849.434-1.91.83-3.217l1.433-4.814H209.3l1.371,4.712c.332,1.142.6,2.263.811,3.322h.06a29.023,29.023,0,0,1,.685-3.322l1.226-4.712,2.2,0Zm11.617,10.087h-2.242V35.142c0-1.784-.685-2.678-2.035-2.678a2.328,2.328,0,0,0-2.242,2.47v6h-2.242v-7.2c0-.892-.021-1.848-.083-2.885H220.4l.1,1.557h.062a3.625,3.625,0,0,1,3.2-1.762c2.118,0,3.509,1.619,3.509,4.254l0,6.04Zm6.183,0h-2.244V26.219h2.244Zm8.175.229c-2.946,0-4.859-2.2-4.859-5.189,0-3.114,1.951-5.334,5.023-5.334,2.907,0,4.859,2.1,4.859,5.17C246.651,38.962,244.636,41.163,241.626,41.163Zm.083-8.885c-1.62,0-2.657,1.514-2.657,3.632,0,2.077,1.061,3.591,2.634,3.591s2.636-1.619,2.636-3.634c0-2.053-1.033-3.589-2.612-3.589Zm13.78,8.656-.163-1.161h-.06a3.445,3.445,0,0,1-2.95,1.39,2.933,2.933,0,0,1-3.091-2.969c0-2.49,2.159-3.777,5.9-3.777v-.186c0-1.328-.7-1.993-2.094-1.993a4.722,4.722,0,0,0-2.636.749l-.456-1.474a6.45,6.45,0,0,1,3.464-.873c2.636,0,3.966,1.39,3.966,4.173v3.715a15.235,15.235,0,0,0,.145,2.408l-2.022,0Zm-.308-5.024c-2.49,0-3.74.6-3.74,2.034a1.429,1.429,0,0,0,1.538,1.576,2.147,2.147,0,0,0,2.2-2.053Zm13.072,5.024-.1-1.619h-.062a3.382,3.382,0,0,1-3.239,1.848c-2.432,0-4.234-2.139-4.234-5.148,0-3.155,1.868-5.377,4.418-5.377a3.032,3.032,0,0,1,2.845,1.371h.045v-5.79h2.244v12c0,.975.024,1.889.083,2.718ZM267.921,35a2.44,2.44,0,0,0-2.362-2.616c-1.662,0-2.678,1.474-2.678,3.548,0,2.034,1.055,3.426,2.634,3.426a2.517,2.517,0,0,0,2.407-2.678V35Zm16.473,6.164c-2.946,0-4.856-2.2-4.856-5.189,0-3.114,1.951-5.334,5.023-5.334,2.907,0,4.859,2.1,4.859,5.17,0,3.153-2.011,5.353-5.025,5.353Zm.083-8.885c-1.617,0-2.655,1.514-2.655,3.632,0,2.077,1.059,3.591,2.634,3.591s2.636-1.619,2.636-3.634C287.1,33.814,286.059,32.278,284.478,32.278Zm17,8.656h-2.244V35.142c0-1.784-.685-2.678-2.035-2.678a2.327,2.327,0,0,0-2.24,2.47v6h-2.244v-7.2c0-.892-.021-1.848-.083-2.885H294.6l.1,1.557h.062a3.623,3.623,0,0,1,3.2-1.765c2.118,0,3.511,1.619,3.511,4.254Zm15.085-8.406H314.1v4.9c0,1.247.432,1.869,1.3,1.869a4.417,4.417,0,0,0,.995-.1l.062,1.7a4.967,4.967,0,0,1-1.739.25c-1.767,0-2.824-.975-2.824-3.529V32.529h-1.472V30.848h1.472V29l2.2-.665v2.511h2.467v1.683Zm11.869,8.406h-2.24V35.185c0-1.805-.682-2.718-2.035-2.718a2.2,2.2,0,0,0-2.244,2.387v6.081h-2.24V26.219h2.24v6.059h.045a3.4,3.4,0,0,1,3.034-1.64c2.135,0,3.44,1.66,3.44,4.3Zm12.16-4.5h-6.728a2.9,2.9,0,0,0,3.179,2.988,7.579,7.579,0,0,0,2.719-.477l.349,1.557a8.424,8.424,0,0,1-3.384.622c-3.156,0-5.023-1.993-5.023-5.084s1.913-5.418,4.771-5.418c2.578,0,4.2,1.91,4.2,4.8a4.32,4.32,0,0,1-.077,1.016Zm-2.056-1.6c0-1.557-.785-2.656-2.219-2.656a2.659,2.659,0,0,0-2.452,2.656h4.67Z" transform="translate(-174.806 -26.219)" fill="#fff"/>
    </g>
  </g>
</svg>
