<svg xmlns="http://www.w3.org/2000/svg" width="243" height="43" viewBox="0 0 243 43">
  <path fill="#FFF" d="M7.10542736e-15 40.6067344L16.632.700734361 22.41.700734361 39.204 40.6067344 31.05 40.6067344 26.73 30.2927344 12.582 30.2927344 8.154 40.6067344 7.10542736e-15 40.6067344zM15.282 23.1067344L23.814 23.1067344 19.548 11.0067344 15.282 23.1067344zM71.822 29.7527344L80.408 29.7527344C78.9166587 33.3285408 76.3245847 36.3360471 73.008 38.3387344 69.7633287 40.4106412 66.003493 41.5329802 62.154 41.5787344L61.884 41.5787344C56.3547853 41.6610482 51.0451313 39.4176704 47.25 35.3957344 43.3178136 31.5166131 41.1342293 26.2038747 41.202 20.6807344 41.1339822 15.1917499 43.3316021 9.91746222 47.277 6.10073436 51.0224602 2.16251026 56.2333083-.0462433462 61.668.000734361185 65.6713976.0027527452 69.5928579 1.13520308 72.981 3.26773436 76.4218654 5.32329391 79.1030585 8.43959749 80.622 12.1487344L72.198 12.0947344C70.9277336 10.5830109 69.342861 9.36671329 67.554 8.53073436 65.7377729 7.64360809 63.7433047 7.18192564 61.722 7.18073436 58.1831775 7.13796553 54.7979318 8.62393096 52.434 11.2577344 49.9255787 13.8553032 48.547195 17.3400899 48.6 20.9507344 48.5986327 24.480901 50.008161 27.865209 52.515 30.3507344 54.8763388 32.9751607 58.2456634 34.4668173 61.776 34.4507344 63.6833902 34.4665984 65.5685745 34.0408233 67.284 33.2067344 68.9950807 32.3656959 70.5341115 31.2126098 71.822 29.8067344L71.822 29.7527344zM89.422 40.6067344L89.422 7.88273436 82.08 7.88273436 82.08.700734361 104.274.700734361 104.274 7.88273436 96.822 7.88273436 96.822 40.6067344 89.422 40.6067344zM111.594 16.6067344L116.822 3.00673436 118.756 3.00673436 124.322 16.6067344 122.272 16.6067344 120.686 12.4877344 114.999 12.4877344 113.505 16.6067344 111.594 16.6067344zM115.522 11.0217344L120.129 11.0217344 118.71 7.25473436C118.277333 6.11073436 117.955667 5.17073436 117.745 4.43473436 117.568657 5.31914527 117.32358 6.18844977 117.012 7.03473436L115.522 11.0217344zM125.547 16.6067344L125.547 6.75373436 127.047 6.75373436 127.047 8.15373436C127.728679 7.09271686 128.923096 6.4741797 130.183 6.52973436 130.744793 6.52350382 131.301908 6.63240848 131.82 6.84973436 132.262992 7.02129057 132.649916 7.31200326 132.938 7.68973436 133.195814 8.06012618 133.372971 8.48053203 133.458 8.92373436 133.535072 9.4614434 133.566185 10.0047421 133.551 10.5477344L133.551 16.6067344 131.881 16.6067344 131.881 10.6137344C131.904075 10.0976455 131.838111 9.58143701 131.686 9.08773436 131.553958 8.74809028 131.310267 8.46349007 130.995 8.28073436 130.642372 8.07462015 130.239326 7.97074239 129.831 7.98073436 129.153918 7.96796183 128.496656 8.20952866 127.989 8.65773436 127.382751 9.3683906 127.101699 10.3003949 127.214 11.2277344L127.214 16.6067344 125.547 16.6067344zM139.76 15.1127344L140.001 16.5877344C139.586881 16.6804679 139.164328 16.7303968 138.74 16.7367344 138.253122 16.7626638 137.767712 16.6635162 137.33 16.4487344 137.01717 16.2815988 136.768285 16.0158403 136.622 15.6927344 136.446193 15.0514273 136.378598 14.3852849 136.422 13.7217344L136.422 8.05273436 135.196 8.05273436 135.196 6.75273436 136.422 6.75273436 136.422 4.31273436 138.083 3.31273436 138.083 6.75473436 139.762 6.75473436 139.762 8.05473436 138.081 8.05473436 138.081 13.8157344C138.061351 14.1244667 138.091058 14.4343572 138.169 14.7337344 138.228121 14.8698583 138.328975 14.9836698 138.457 15.0587344 138.633147 15.1492376 138.830284 15.1910126 139.028 15.1797344 139.273233 15.1739547 139.517793 15.1515701 139.76 15.1127344zM141.402 4.92673436L141.402 3.00673436 143.072 3.00673436 143.072 4.92673436 141.402 4.92673436zM141.402 16.6067344L141.402 6.75373436 143.072 6.75373436 143.072 16.6067344 141.402 16.6067344zM160.81 11.8377344L162.61 12.2927344C162.327899 13.6157402 161.611175 14.8062909 160.574 15.6747344 159.546288 16.4667116 158.275871 16.8780513 156.979 16.8387344 155.724875 16.8925424 154.482241 16.5797989 153.403 15.9387344 152.455345 15.3083461 151.722697 14.4037014 151.303 13.3457344 150.821165 12.1934941 150.577606 10.9556275 150.587 9.70673436 150.55714 8.42421548 150.83561 7.15326977 151.399 6.00073436 151.905733 4.98352957 152.711896 4.14595712 153.709 3.60073436 154.720909 3.04992622 155.856961 2.76729038 157.009 2.77973436 158.236533 2.7385226 159.443328 3.10376006 160.442 3.81873436 161.395405 4.54989911 162.077735 5.57814489 162.381 6.74073436L160.609 7.15773436C160.387582 6.31169929 159.907592 5.55588168 159.236 4.99573436 158.576979 4.52588238 157.780772 4.28779397 156.972 4.31873436 156.040854 4.28524071 155.123113 4.54820285 154.351 5.06973436 153.652909 5.56515097 153.133746 6.27303653 152.871 7.08773436 152.586845 7.92920671 152.442598 8.81158029 152.444 9.69973436 152.422785 10.7320859 152.594389 11.7593323 152.95 12.7287344 153.240097 13.53165 153.794391 14.2121757 154.522 14.6587344 155.218142 15.0812532 156.017679 15.30277 156.832 15.2987344 157.76276 15.3255445 158.671995 15.0159572 159.393 14.4267344 160.145276 13.7494054 160.644946 12.836459 160.81 11.8377344zM163.992 11.6797344C163.869156 10.1693105 164.42732 8.68295268 165.514 7.62673436 166.376441 6.8910663 167.480834 6.50096628 168.614 6.53173436 169.859114 6.48751433 171.065065 6.97083896 171.935 7.86273436 172.837559 8.8683047 173.300907 10.1928245 173.222 11.5417344 173.270646 12.5701676 173.07497 13.5954963 172.651 14.5337344 172.279766 15.251287 171.701875 15.8410214 170.992 16.2267344 170.263483 16.6281231 169.443736 16.834782 168.612 16.8267344 167.360849 16.8792604 166.145935 16.3996893 165.268 15.5067344 164.355437 14.4492402 163.897228 13.0742525 163.993 11.6807344L163.992 11.6797344zM165.708 11.6797344C165.631354 12.6932271 165.924827 13.700131 166.534 14.5137344 167.048849 15.125457 167.812613 15.4716871 168.612 15.4557344 169.410247 15.4698545 170.171725 15.1207519 170.682 14.5067344 171.294855 13.6754651 171.588057 12.6513902 171.508 11.6217344 171.579383 10.628278 171.284085 9.64312156 170.678 8.85273436 170.166795 8.24415606 169.408695 7.89816304 168.614 7.91073436 167.815586 7.894268 167.05226 8.23846273 166.536 8.84773436 165.924879 9.66002038 165.630855 10.6672403 165.709 11.6807344L165.708 11.6797344zM181.638 16.6067344L181.638 15.1597344C180.960319 16.2253828 179.774541 16.8588596 178.512 16.8297344 177.951888 16.834083 177.397154 16.7202738 176.884 16.4957344 176.441791 16.3202905 176.054207 16.0303791 175.761 15.6557344 175.502261 15.2845583 175.326603 14.8619541 175.246 14.4167344 175.164769 13.9012516 175.131293 13.379371 175.146 12.8577344L175.146 6.75773436 176.816 6.75773436 176.816 12.2217344C176.795873 12.8112168 176.829343 13.4013089 176.916 13.9847344 177.005406 14.3992119 177.242914 14.7668511 177.584 15.0187344 177.952524 15.2780962 178.39562 15.410112 178.846 15.3947344 179.342137 15.3960387 179.829373 15.2629992 180.256 15.0097344 180.675517 14.7749462 181.003805 14.4057978 181.188 13.9617344 181.398169 13.3426712 181.49109 12.689853 181.462 12.0367344L181.462 6.75373436 183.132 6.75373436 183.132 16.6067344 181.638 16.6067344zM185.748 16.6067344L185.748 6.75373436 187.248 6.75373436 187.248 8.15373436C187.929679 7.09271686 189.124096 6.4741797 190.384 6.52973436 190.945793 6.52350382 191.502908 6.63240848 192.021 6.84973436 192.463992 7.02129057 192.850916 7.31200326 193.139 7.68973436 193.396814 8.06012618 193.573971 8.48053203 193.659 8.92373436 193.736072 9.4614434 193.767185 10.0047421 193.752 10.5477344L193.752 16.6067344 192.082 16.6067344 192.082 10.6137344C192.105075 10.0976455 192.039111 9.58143701 191.887 9.08773436 191.754958 8.74809028 191.511267 8.46349007 191.196 8.28073436 190.843372 8.07462015 190.440326 7.97074239 190.032 7.98073436 189.354918 7.96796183 188.697656 8.20952866 188.19 8.65773436 187.583751 9.3683906 187.302699 10.3003949 187.415 11.2277344L187.415 16.6067344 185.748 16.6067344zM199.961 15.1127344L200.202 16.5877344C199.787554 16.6805359 199.364662 16.7304653 198.94 16.7367344 198.453122 16.7626638 197.967712 16.6635162 197.53 16.4487344 197.21717 16.2815988 196.968285 16.0158403 196.822 15.6927344 196.646193 15.0514273 196.578598 14.3852849 196.622 13.7217344L196.622 8.05273436 195.396 8.05273436 195.396 6.75273436 196.622 6.75273436 196.622 4.31273436 198.283 3.31273436 198.283 6.75473436 199.962 6.75473436 199.962 8.05473436 198.282 8.05473436 198.282 13.8157344C198.262351 14.1244667 198.292058 14.4343572 198.37 14.7337344 198.429121 14.8698583 198.529975 14.9836698 198.658 15.0587344 198.834147 15.1492376 199.031284 15.1910126 199.229 15.1797344 199.474233 15.1739547 199.718793 15.1515701 199.961 15.1127344zM208.338 13.4337344L210.064 13.6467344C209.841834 14.5786376 209.308473 15.406899 208.552 15.9947344 207.730487 16.577844 206.738554 16.8715547 205.732 16.8297344 204.452071 16.893604 203.205472 16.4095833 202.304 15.4987344 201.408197 14.4685148 200.953473 13.1273316 201.038 11.7647344 200.951663 10.3611668 201.41179 8.97863641 202.322 7.90673436 203.178162 6.990061 204.389474 6.48926859 205.643 6.53373436 206.861377 6.49376532 208.037313 6.98361724 208.867 7.87673436 209.757925 8.92927218 210.207583 10.2854139 210.122 11.6617344 210.122 11.760401 210.119 11.9087344 210.113 12.1067344L202.763 12.1067344C202.759517 13.0189334 203.085502 13.9017199 203.681 14.5927344 204.213495 15.1605498 204.962787 15.4744522 205.741 15.4557344 206.302438 15.4717824 206.85352 15.3023809 207.309 14.9737344 207.796306 14.5730578 208.154305 14.0372782 208.338 13.4337344L208.338 13.4337344zM202.855 10.7337344L208.355 10.7337344C208.336175 10.062896 208.11558 9.41330853 207.722 8.86973436 207.222432 8.24309505 206.458151 7.88667754 205.657 7.90673436 204.934354 7.88920584 204.235845 8.16730903 203.723 8.67673436 203.183919 9.2279417 202.873759 9.96296461 202.855 10.7337344L202.855 10.7337344zM212.142 16.6067344L212.142 6.75373436 213.642 6.75373436 213.642 8.24773436C213.892216 7.71588459 214.254497 7.24444127 214.704 6.86573436 215.01822 6.64627142 215.392733 6.52958537 215.776 6.5317052 216.387155 6.54646877 216.981826 6.73290988 217.492 7.06973436L216.922 8.61873436C216.554093 8.38911556 216.130622 8.26397537 215.697 8.25673436 215.341781 8.25351231 214.995715 8.36933727 214.714 8.58573436 214.415113 8.81685016 214.197318 9.1368898 214.092 9.49973436 213.901015 10.1311975 213.807274 10.7880558 213.814 11.4477344L213.814 16.6067344 212.142 16.6067344zM218.887 16.6067344L218.887 8.05273436 217.412 8.05273436 217.412 6.75273436 218.887 6.75273436 218.887 5.70673436C218.865191 5.20877288 218.924636 4.71058359 219.063 4.23173436 219.224393 3.79799456 219.522353 3.4284405 219.912 3.17873436 220.427758 2.88303822 221.018503 2.74403922 221.612 2.77873436 222.135817 2.78431661 222.657885 2.84024049 223.171 2.94573436L222.921 4.40273436C222.596711 4.34285146 222.267766 4.31173052 221.938 4.30973436 221.550366 4.2704688 221.163082 4.3874459 220.862 4.63473436 220.611245 4.98725685 220.499108 5.41978474 220.547 5.84973436L220.547 6.75873436 222.467 6.75873436 222.467 8.05873436 220.547 8.05873436 220.547 16.6067344 218.887 16.6067344zM230.512 13.4337344L232.238 13.6467344C232.014783 14.5791971 231.479963 15.4075335 230.722 15.9947344 229.900487 16.577844 228.908554 16.8715547 227.902 16.8297344 226.622071 16.893604 225.375472 16.4095833 224.474 15.4987344 223.578197 14.4685148 223.123473 13.1273316 223.208 11.7647344 223.120295 10.3613683 223.578983 8.97849552 224.488 7.90573436 225.344162 6.989061 226.555474 6.48826859 227.809 6.53273436 229.029412 6.49181353 230.207516 6.98253825 231.038 7.87773436 231.927846 8.93072442 232.376413 10.2868179 232.29 11.6627344 232.29 11.761401 232.287 11.9097344 232.281 12.1077344L224.933 12.1077344C224.929517 13.0199334 225.255502 13.9027199 225.851 14.5937344 226.383495 15.1615498 227.132787 15.4754522 227.911 15.4567344 228.472438 15.4727824 229.02352 15.3033809 229.479 14.9747344 229.967576 14.5742026 230.32666 14.0380117 230.511 13.4337344L230.512 13.4337344zM225.029 10.7337344L230.529 10.7337344C230.510959 10.0627656 230.291058 9.41282047 229.898 8.86873436 229.397983 8.24020657 228.631888 7.88289309 227.829 7.90373436 227.106354 7.88620584 226.407845 8.16430903 225.895 8.67373436 225.355587 9.22585017 225.045736 9.96205821 225.028 10.7337344L225.029 10.7337344zM234.343 4.92573436L234.343 3.00673436 236.013 3.00673436 236.013 4.92673436 234.343 4.92573436zM234.343 16.6057344L234.343 6.75373436 236.013 6.75373436 236.013 16.6067344 234.343 16.6057344zM242.201 15.1117344L242.442 16.5867344C242.027519 16.6791995 241.604628 16.7287937 241.18 16.7347344 240.693122 16.7606638 240.207712 16.6615162 239.77 16.4467344 239.45829 16.2790775 239.210513 16.0133764 239.065 15.6907344 238.889193 15.0494273 238.821598 14.3832849 238.865 13.7197344L238.865 8.05273436 237.64 8.05273436 237.64 6.75273436 238.865 6.75273436 238.865 4.31273436 240.526 3.31273436 240.526 6.75473436 242.205 6.75473436 242.205 8.05473436 240.522 8.05473436 240.522 13.8157344C240.502351 14.1244667 240.532058 14.4343572 240.61 14.7337344 240.669121 14.8698583 240.769975 14.9836698 240.898 15.0587344 241.074147 15.1492376 241.271284 15.1910126 241.469 15.1797344 241.714233 15.1739547 241.958793 15.1515701 242.201 15.1127344L242.201 15.1117344zM116.548 38.6067344L116.548 26.6067344 112.067 26.6067344 112.067 25.0067344 122.847 25.0067344 122.847 26.6067344 118.347 26.6067344 118.347 38.6067344 116.548 38.6067344zM129.122 35.4337344L130.848 35.6467344C130.625625 36.5782736 130.092283 37.4061531 129.336 37.9937344 128.514487 38.576844 127.522554 38.8705547 126.516 38.8287344 125.236071 38.892604 123.989472 38.4085833 123.088 37.4977344 122.192197 36.4675148 121.737473 35.1263316 121.822 33.7637344 121.734295 32.3603683 122.192983 30.9774955 123.102 29.9047344 123.95793 28.9883293 125.168819 28.4875612 126.422 28.5317344 127.642412 28.4908135 128.820516 28.9815383 129.651 29.8767344 130.540846 30.9297244 130.989413 32.2858179 130.903 33.6617344 130.903 33.760401 130.9 33.9087344 130.894 34.1067344L123.543 34.1067344C123.539517 35.0189334 123.865502 35.9017199 124.461 36.5927344 124.993495 37.1605498 125.742787 37.4744522 126.521 37.4557344 127.082438 37.4717824 127.63352 37.3023809 128.089 36.9737344 128.577782 36.5736081 128.93721 36.0377721 129.122 35.4337344zM123.639 32.7337344L129.139 32.7337344C129.120959 32.0627656 128.901058 31.4128205 128.508 30.8687344 128.007983 30.2402066 127.241888 29.8828931 126.439 29.9037344 125.716354 29.8862058 125.017845 30.164309 124.505 30.6737344 123.964854 31.2255373 123.654273 31.9617824 123.636 32.7337344L123.639 32.7337344zM139.373 34.9977344L141.015 35.2107344C140.892485 36.2343066 140.402876 37.178703 139.637 37.8687344 138.879823 38.5153997 137.90932 38.8575529 136.914 38.8287344 135.688999 38.8804903 134.501811 38.3981722 133.66 37.5067344 132.778935 36.4480452 132.33888 35.0910025 132.431 33.7167344 132.41047 32.7593415 132.590671 31.8082606 132.96 30.9247344 133.279378 30.1610067 133.84648 29.5269794 134.57 29.1247344 135.289246 28.7255196 136.099411 28.5188448 136.922 28.5247344 137.864479 28.4844232 138.791897 28.7713043 139.547 29.3367344 140.251045 29.9185574 140.716581 30.7389404 140.855 31.6417344L139.231 31.8917344C139.125853 31.3181411 138.837824 30.7940065 138.41 30.3977344 138.012502 30.0624436 137.505856 29.8845482 136.986 29.8977344 136.201657 29.8719312 135.447855 30.2028687 134.936 30.7977344 134.34109 31.6275844 134.06136 32.6422694 134.147 33.6597344 134.060195 34.6804004 134.329058 35.6996779 134.908 36.5447344 135.394947 37.1354783 136.127777 37.467744 136.893 37.4447344 137.497294 37.4643763 138.085735 37.249355 138.535 36.8447344 139.02005 36.3450702 139.315688 35.6919088 139.371 34.9977344L139.373 34.9977344zM142.441 38.6067344L142.441 25.0067344 144.111 25.0067344 144.111 29.8867344C144.836205 29.0088974 145.922573 28.510273 147.061 28.5327344 147.720268 28.5166915 148.373182 28.6647999 148.961 28.9637344 149.471025 29.2187371 149.880089 29.6383709 150.122 30.1547344 150.387913 30.8591553 150.506358 31.6106729 150.47 32.3627344L150.47 38.6067344 148.8 38.6067344 148.8 32.3627344C148.857788 31.7080883 148.663576 31.0560645 148.257 30.5397344 147.84904 30.1409951 147.291374 29.9335508 146.722 29.9687344 146.228981 29.9671833 145.7449 30.1003057 145.322 30.3537344 144.904801 30.5895536 144.577166 30.9565604 144.39 31.3977344 144.180872 31.9801137 144.086468 32.597472 144.112 33.2157344L144.112 38.6067344 142.441 38.6067344zM153.008 38.6067344L153.008 28.7537344 154.508 28.7537344 154.508 30.1537344C155.189679 29.0927169 156.384096 28.4741797 157.644 28.5297344 158.205793 28.5235038 158.762908 28.6324085 159.281 28.8497344 159.723992 29.0212906 160.110916 29.3120033 160.399 29.6897344 160.656814 30.0601262 160.833971 30.480532 160.919 30.9237344 160.996072 31.4614434 161.027185 32.0047421 161.012 32.5477344L161.012 38.6067344 159.342 38.6067344 159.342 32.6137344C159.365075 32.0976455 159.299111 31.581437 159.147 31.0877344 159.014958 30.7480903 158.771267 30.4634901 158.456 30.2807344 158.103372 30.0746201 157.700326 29.9707424 157.292 29.9807344 156.614918 29.9679618 155.957656 30.2095287 155.45 30.6577344 154.843751 31.3683906 154.562699 32.3003949 154.675 33.2277344L154.675 38.6067344 153.008 38.6067344zM162.953 33.6807344C162.829593 32.1701294 163.387405 30.6833644 164.474 29.6267344 165.336441 28.8910663 166.440834 28.5009663 167.574 28.5317344 168.819114 28.4875143 170.025065 28.970839 170.895 29.8627344 171.798391 30.8675809 172.26282 32.1917433 172.185 33.5407344 172.233646 34.5691676 172.03797 35.5944963 171.614 36.5327344 171.242234 37.2505739 170.663616 37.8403397 169.953 38.2257344 169.224483 38.6271231 168.404736 38.833782 167.573 38.8257344 166.322 38.8785216 165.107109 38.3993226 164.229 37.5067344 163.316437 36.4492402 162.858228 35.0742525 162.954 33.6807344L162.953 33.6807344zM164.669 33.6807344C164.592354 34.6942271 164.885827 35.701131 165.495 36.5147344 166.017087 37.1145223 166.773315 37.4588524 167.5685 37.4588524 168.363685 37.4588524 169.119913 37.1145223 169.642 36.5147344 170.254855 35.6834651 170.548057 34.6593902 170.468 33.6297344 170.539383 32.636278 170.244085 31.6511216 169.638 30.8607344 169.115255 30.2638716 168.360415 29.9215613 167.567 29.9215613 166.773585 29.9215613 166.018745 30.2638716 165.496 30.8607344 164.888283 31.6697055 164.594783 32.6717266 164.67 33.6807344L164.669 33.6807344zM174.105 38.6067344L174.105 25.0067344 175.775 25.0067344 175.775 38.6067344 174.105 38.6067344zM177.742 33.6807344C177.618593 32.1701294 178.176405 30.6833644 179.263 29.6267344 180.125441 28.8910663 181.229834 28.5009663 182.363 28.5317344 183.608114 28.4875143 184.814065 28.970839 185.684 29.8627344 186.587391 30.8675809 187.05182 32.1917433 186.974 33.5407344 187.022646 34.5691676 186.82697 35.5944963 186.403 36.5327344 186.031234 37.2505739 185.452616 37.8403397 184.742 38.2257344 184.013483 38.6271231 183.193736 38.833782 182.362 38.8257344 181.112371 38.8773768 179.89916 38.3982673 179.022 37.5067344 178.107636 36.450013 177.647601 35.0749406 177.742 33.6807344L177.742 33.6807344zM179.458 33.6807344C179.381354 34.6942271 179.674827 35.701131 180.284 36.5147344 180.806087 37.1145223 181.562315 37.4588524 182.3575 37.4588524 183.152685 37.4588524 183.908913 37.1145223 184.431 36.5147344 185.043855 35.6834651 185.337057 34.6593902 185.257 33.6297344 185.328383 32.636278 185.033085 31.6511216 184.427 30.8607344 183.904255 30.2638716 183.149415 29.9215613 182.356 29.9215613 181.562585 29.9215613 180.807745 30.2638716 180.285 30.8607344 179.676928 31.6695679 179.383069 32.6716016 179.458 33.6807344L179.458 33.6807344zM188.622 39.4227344L190.246 39.6637344C190.274827 40.0913829 190.479787 40.4879044 190.812 40.7587344 191.313356 41.0936599 191.91001 41.2565113 192.512 41.2227344 193.143095 41.2618622 193.770292 41.0993722 194.303 40.7587344 194.731057 40.4387209 195.033275 39.9786708 195.157 39.4587344 195.269289 38.7502869 195.309828 38.0323191 195.278 37.3157344 194.616106 38.1444528 193.608507 38.6209401 192.548 38.6067344 191.321971 38.6670402 190.145154 38.1184822 189.403 37.1407344 188.648824 36.1263947 188.256898 34.8882891 188.29 33.6247344 188.280937 32.732359 188.454494 31.8475598 188.8 31.0247344 189.100948 30.2782532 189.615858 29.6373986 190.28 29.1827344 190.956399 28.7413823 191.750559 28.5151268 192.558 28.5337344 193.686926 28.5170441 194.755799 29.0410741 195.434 29.9437344L195.434 28.7537344 196.974 28.7537344 196.974 37.2707344C197.043371 38.378412 196.883717 39.4885012 196.505 40.5317344 196.183564 41.1815305 195.664344 41.7126542 195.022 42.0487344 194.249049 42.4425622 193.389053 42.6345133 192.522 42.6067344 191.512202 42.6545518 190.513773 42.3765481 189.674 41.8137344 188.932673 41.2528992 188.534616 40.3481886 188.622 39.4227344zM190.006 33.5067344C189.920836 34.5113603 190.193571 35.5137501 190.776 36.3367344 191.258563 36.9004065 191.96348 37.2248779 192.7055 37.2248779 193.44752 37.2248779 194.152437 36.9004065 194.635 36.3367344 195.220009 35.5340279 195.496532 34.5475636 195.414 33.5577344 195.486648 32.5815096 195.202368 31.6121127 194.614 30.8297344 194.141313 30.2470319 193.430314 29.9095464 192.68 29.9116896 191.944747 29.9072596 191.247672 30.238674 190.787 30.8117344 190.211186 31.5869863 189.933927 32.5437274 190.006 33.5067344L190.006 33.5067344zM199.506 26.9287344L199.506 25.0067344 201.176 25.0067344 201.176 26.9267344 199.506 26.9287344zM199.506 38.6087344L199.506 28.7537344 201.176 28.7537344 201.176 38.6067344 199.506 38.6087344zM210.463 35.4357344L212.189 35.6487344C211.966625 36.5802736 211.433283 37.4081531 210.677 37.9957344 208.723449 39.2712147 206.154846 39.0656607 204.429 37.4957344 203.533197 36.4655148 203.078473 35.1243316 203.163 33.7617344 203.076068 32.3598557 203.534328 30.9786265 204.442 29.9067344 205.298162 28.990061 206.509474 28.4892686 207.763 28.5337344 208.9831 28.4923016 210.161155 28.9822762 210.992 29.8767344 211.881846 30.9297244 212.330413 32.2858179 212.244 33.6617344 212.244 33.760401 212.241 33.9087344 212.235 34.1067344L204.887 34.1067344C204.883517 35.0189334 205.209502 35.9017199 205.805 36.5927344 206.337495 37.1605498 207.086787 37.4744522 207.865 37.4557344 208.426438 37.4717824 208.97752 37.3023809 209.433 36.9737344 209.920675 36.5731952 210.279031 36.0374015 210.463 35.4337344L210.463 35.4357344zM204.98 32.7357344L210.48 32.7357344C210.461959 32.0647656 210.242058 31.4148205 209.849 30.8707344 209.349207 30.2431511 208.58402 29.8862858 207.782 29.9067344 207.059354 29.8892058 206.360845 30.167309 205.848 30.6767344 205.308919 31.2279417 204.998759 31.9629646 204.98 32.7337344L204.98 32.7357344zM213.622 35.6657344L215.273 35.4057344C215.327453 35.9931485 215.604774 36.5374129 216.048 36.9267344 216.559323 37.3072907 217.188794 37.4946796 217.825 37.4557344 218.431262 37.5030316 219.035011 37.337151 219.532 36.9867344 219.877826 36.7259684 220.083484 36.3198208 220.089 35.8867344 220.096731 35.5229744 219.908976 35.1829555 219.597 34.9957344 219.053723 34.7368865 218.480304 34.5467546 217.89 34.4297344 217.019671 34.2364466 216.167542 33.9687972 215.343 33.6297344 214.452801 33.2339054 213.884893 32.3448531 213.9 31.3707344 213.896134 30.9453474 213.999297 30.5258173 214.2 30.1507344 214.397522 29.7804883 214.678625 29.4613791 215.021 29.2187344 215.344661 28.997068 215.703834 28.8323625 216.083 28.7317344 216.551809 28.5956892 217.037863 28.5283221 217.526 28.5317344 218.219334 28.5182905 218.909301 28.6314777 219.562 28.8657344 220.071387 29.0340944 220.520923 29.3467545 220.856 29.7657344 221.163978 30.2226361 221.360883 30.7452062 221.431 31.2917344L219.798 31.5147344C219.746705 31.0498798 219.515119 30.6236913 219.153 30.3277344 218.713722 30.0176246 218.181649 29.8669646 217.645 29.9007344 217.071287 29.8510509 216.496556 29.9840581 216.003 30.2807344 215.704092 30.4802633 215.520647 30.8124788 215.511 31.1717344 215.508584 31.3835987 215.579211 31.5898306 215.711 31.7557344 215.880502 31.9588479 216.101577 32.1125639 216.351 32.2007344 216.517667 32.2627344 217.009333 32.4050677 217.826 32.6277344 218.66549 32.8337816 219.491133 33.0926299 220.298 33.4027344 220.740826 33.5841377 221.122511 33.8884443 221.398 34.2797344 221.676032 34.7031821 221.815793 35.2024805 221.798 35.7087344 221.797 36.2700282 221.627328 36.8180657 221.311 37.2817344 220.964191 37.7915568 220.475297 38.1883056 219.905 38.4227344 219.24778 38.6994311 218.539974 38.8356787 217.827 38.8227344 216.789161 38.8925045 215.758071 38.6106895 214.9 38.0227344 214.195072 37.423854 213.739281 36.5832454 213.622 35.6657344z" transform="translate(0 .001)"/>
</svg>
